{"title":"Mythbusters S16 Season 16 - 720p HDTV x264 [RLG]","uid":13766717,"size":12472776699,"categoryP":"video","categoryS":"tv_shows","magnet":"?xt=urn:btih:8cc63892820085ffddb431f0640f01511b8823e4&amp;dn=Mythbusters+S16+Season+16+-+720p+HDTV+x264+%5BRLG%5D&amp;tr=udp%3A%2F%2Ftracker.leechers-paradise.org%3A6969&amp;tr=udp%3A%2F%2Fzer0day.ch%3A1337&amp;tr=udp%3A%2F%2Fopen.demonii.com%3A1337&amp;tr=udp%3A%2F%2Ftracker.coppersurfer.tk%3A6969&amp;tr=udp%3A%2F%2Fexodus.desync.com%3A6969","seeders":0,"leechers":1,"uploader":"RedLegsGreaves","files":12,"time":1457251411,"description":"\n\r\n\r\nINFO\r\n \nhttp://www.imdb.com/title/tt0383126/\r\n\r\nVideo\r\nID                          : 1\r\nFormat                      : AVC\r\nFormat/Info                 : Advanced Video Codec\r\nFormat profile              :   \r\nFormat settings, CABAC      : Yes\r\nFormat settings, ReFrames   : 5 frames\r\nCodec ID                    : V_MPEG4/ISO/AVC\r\nDuration                    : 42mn 30s\r\nBit rate                    : 4 722 Kbps\r\nWidth                       : 1 280 pixels\r\nHeight                      : 720 pixels\r\nDisplay aspect ratio        : 16:9\r\nFrame rate mode             : Constant\r\nFrame rate                  : 25.000 fps\r\nColor space                 : YUV\r\nChroma subsampling          : 4:2:0\r\nBit depth                   : 8 bits\r\nScan type                   : Progressive\r\nBits/(Pixel*Frame)          : 0.205\r\nStream size                 : 1.40 GiB (92%)\r\nWriting library             : x264 core 148 r2638 7599210\r\nEncoding settings           : cabac=1 / ref=5 / deblock=1:0:0 / analyse=0x3:0x113 / me=umh / subme=8 / psy=1 / psy_rd=1.00:0.00 / mixed_ref=1 / me_range=16 / chroma_me=1 / trellis=1 / 8x8dct=1 / cqm=0 / deadzone=21,11 / fast_pskip=1 / chroma_qp_offset=-2 / threads=12 / lookahead_threads=2 / sliced_threads=0 / nr=0 / decimate=1 / interlaced=0 / bluray_compat=0 / constrained_intra=0 / bframes=3 / b_pyramid=2 / b_adapt=2 / b_bias=0 / direct=3 / weightb=1 / open_gop=0 / weightp=2 / keyint=250 / keyint_min=25 / scenecut=40 / intra_refresh=0 / rc_lookahead=50 / rc=crf / mbtree=1 / crf=21.0 / qcomp=0.60 / qpmin=0 / qpmax=69 / qpstep=4 / ip_ratio=1.40 / aq=1:1.00\r\nDefault                     : Yes\r\nForced                      : No\r\n\r\nAudio\r\nID                          : 2\r\nFormat                      : AC-3\r\nFormat/Info                 : Audio Coding 3\r\nMode extension              : CM (complete main)\r\nFormat settings, Endianness : Big\r\nCodec ID                    : A_AC3\r\nDuration                    : 42mn 30s\r\nBit rate mode               : Constant\r\nBit rate                    : 384 Kbps\r\nChannel(s)                  : 6 channels\r\nChannel positions           : Front: L C R, Side: L R, LFE\r\nSampling rate               : 48.0 KHz\r\nFrame rate                  : 31.250 fps (1536 spf)\r\nCompression mode            : Lossy\r\nStream size                 : 117 MiB (8%)\r\nDefault                     : Yes\r\nForced                      : No\r\n\r\nPlot\r\n\r\n\r\nA weekly documentary in which two Hollywood special effects experts attempt to debunk urban legends by directly testing them.\r\nCreator: Peter Rees\r\nStars: Jamie Hyneman, Adam Savage, Robert Lee \r\n\r\nScreenshots\r\n \nhttp://lookpic.com/O/i2/673/0jqjR1wS.jpeg \nhttp://lookpic.com/O/i2/623/6CyjGxYS.jpeg \nhttp://lookpic.com/O/i2/839/Fk7QATSq.jpeg \nhttp://lookpic.com/O/i2/595/BgqW6Abe.jpeg \nhttp://lookpic.com/O/i2/849/gp8zlAYv.jpeg\r\n \nhttps://i.imgur.com/fLhfPWl.jpg","torrent":{"xt":"urn:btih:8cc63892820085ffddb431f0640f01511b8823e4","amp;dn":"Mythbusters+S16+Season+16+-+720p+HDTV+x264+%5BRLG%5D","amp;tr":["udp%3A%2F%2Ftracker.leechers-paradise.org%3A6969","udp%3A%2F%2Fzer0day.ch%3A1337","udp%3A%2F%2Fopen.demonii.com%3A1337","udp%3A%2F%2Ftracker.coppersurfer.tk%3A6969","udp%3A%2F%2Fexodus.desync.com%3A6969"],"infoHash":"8cc63892820085ffddb431f0640f01511b8823e4","infoHashBuffer":{"type":"Buffer","data":[140,198,56,146,130,0,133,255,221,180,49,240,100,15,1,81,27,136,35,228]},"announce":[],"urlList":[]}}